HIERARCHY
ROOT Hips
{
	OFFSET 0.00000 0.00000 0.00000
	CHANNELS 6 Xposition Yposition Zposition Zrotation Yrotation Xrotation 
	JOINT LHipJoint
	{
		OFFSET 0 0 0
		CHANNELS 3 Zrotation Yrotation Xrotation
		JOINT LeftUpLeg
		{
			OFFSET 1.86795 -1.59681 0.65681
			CHANNELS 3 Zrotation Yrotation Xrotation
			JOINT LeftLeg
			{
				OFFSET 2.30491 -6.33268 0.00000
				CHANNELS 3 Zrotation Yrotation Xrotation
				JOINT LeftFoot
				{
					OFFSET 2.46780 -6.78022 0.00000
					CHANNELS 3 Zrotation Yrotation Xrotation
					JOINT LeftToeBase
					{
						OFFSET 0.07897 -0.21698 1.59652
						CHANNELS 3 Zrotation Yrotation Xrotation
						End Site
						{
							OFFSET 0.00000 -0.00000 0.82310
						}
					}
				}
			}
		}
	}
	JOINT RHipJoint
	{
		OFFSET 0 0 0
		CHANNELS 3 Zrotation Yrotation Xrotation
		JOINT RightUpLeg
		{
			OFFSET -1.93650 -1.59681 0.65681
			CHANNELS 3 Zrotation Yrotation Xrotation
			JOINT RightLeg
			{
				OFFSET -2.29410 -6.30299 0.00000
				CHANNELS 3 Zrotation Yrotation Xrotation
				JOINT RightFoot
				{
					OFFSET -2.48738 -6.83403 0.00000
					CHANNELS 3 Zrotation Yrotation Xrotation
					JOINT RightToeBase
					{
						OFFSET -0.08699 -0.23899 1.89395
						CHANNELS 3 Zrotation Yrotation Xrotation
						End Site
						{
							OFFSET -0.00000 -0.00000 0.96904
						}
					}
				}
			}
		}
	}
	JOINT LowerBack
	{
		OFFSET 0 0 0
		CHANNELS 3 Zrotation Yrotation Xrotation
		JOINT Spine
		{
			OFFSET 0.03629 1.99740 -0.07548
			CHANNELS 3 Zrotation Yrotation Xrotation
			JOINT Spine1
			{
				OFFSET 0.03970 1.94298 0.17218
				CHANNELS 3 Zrotation Yrotation Xrotation
				JOINT Neck
				{
					OFFSET 0 0 0
					CHANNELS 3 Zrotation Yrotation Xrotation
					JOINT Neck1
					{
						OFFSET -0.05054 1.79469 0.04241
						CHANNELS 3 Zrotation Yrotation Xrotation
						JOINT Head
						{
							OFFSET 0.05195 1.78475 -0.22133
							CHANNELS 3 Zrotation Yrotation Xrotation
							End Site
							{
								OFFSET 0.02420 1.80711 -0.07950
							}
						}
					}
				}
				JOINT LeftShoulder
				{
					OFFSET 0 0 0
					CHANNELS 3 Zrotation Yrotation Xrotation
					JOINT LeftArm
					{
						OFFSET 2.92134 1.19850 0.36056
						CHANNELS 3 Zrotation Yrotation Xrotation
						JOINT LeftForeArm
						{
							OFFSET 4.84137 -0.00000 0.00000
							CHANNELS 3 Zrotation Yrotation Xrotation
							JOINT LeftHand
							{
								OFFSET 3.24520 -0.00000 -0.00000
								CHANNELS 3 Zrotation Yrotation Xrotation
								JOINT LeftFingerBase
								{
									OFFSET 0 0 0
									CHANNELS 3 Zrotation Yrotation Xrotation
									JOINT LeftHandIndex1
									{
										OFFSET 0.52122 -0.00000 0.00000
										CHANNELS 3 Zrotation Yrotation Xrotation
										End Site
										{
											OFFSET 0.42022 -0.00000 0.00000
										}
									}
								}
								JOINT LThumb
								{
									OFFSET 0 0 0
									CHANNELS 3 Zrotation Yrotation Xrotation
									End Site
									{
										OFFSET 0.42664 -0.00000 0.42664
									}
								}
							}
						}
					}
				}
				JOINT RightShoulder
				{
					OFFSET 0 0 0
					CHANNELS 3 Zrotation Yrotation Xrotation
					JOINT RightArm
					{
						OFFSET -2.84327 1.20795 0.50191
						CHANNELS 3 Zrotation Yrotation Xrotation
						JOINT RightForeArm
						{
							OFFSET -4.72284 -0.00000 0.00000
							CHANNELS 3 Zrotation Yrotation Xrotation
							JOINT RightHand
							{
								OFFSET -3.23459 -0.00000 0.00000
								CHANNELS 3 Zrotation Yrotation Xrotation
								JOINT RightFingerBase
								{
									OFFSET 0 0 0
									CHANNELS 3 Zrotation Yrotation Xrotation
									JOINT RightHandIndex1
									{
										OFFSET -0.30742 -0.00000 0.00000
										CHANNELS 3 Zrotation Yrotation Xrotation
										End Site
										{
											OFFSET -0.24785 -0.00000 0.00000
										}
									}
								}
								JOINT RThumb
								{
									OFFSET 0 0 0
									CHANNELS 3 Zrotation Yrotation Xrotation
									End Site
									{
										OFFSET -0.25163 -0.00000 0.25163
									}
								}
							}
						}
					}
				}
			}
		}
	}
}
MOTION
Frames: 10
Frame Time: 0.0138889
0.00 0.00 0.00 0 0 0 0 0 0 -21 0 0 0 0 0 0 0 0 0 0 0 0 0 0 21 0 0 0 0 0 0 0 0 0 0 0 0 0 0 0 0 0 0 0 0 0 0 -16 0 0 21 0 0 11 0 0 0 -8 0 0 0 0 0 0 0 0 0 0 0 0 0 0 0 0 0 0 0 0 8 0 0 0 0 0 0 0 0 0 0 0 0 0 0 0 0 0
0.00 0.00 0.00 -0.6408 -3.1159 5.4645 0.0000 0.0000 0.0000 -27.6319 -17.9617 -11.7253 2.0608 8.9916 25.7691 0.2967 8.7830 -16.9789 0.1111 2.1488 5.9170 0.0000 0.0000 0.0000 8.4324 15.6287 -31.0997 -9.5165 -17.1288 57.8597 4.3920 -35.3325 -4.1564 -3.8402 -11.9446 35.5364 -0.1250 -0.1540 6.9283 0.9399 -0.1644 -1.8732 1.0686 -0.0587 -5.8378 -6.0617 -0.0478 -8.0527 8.0357 -0.7189 19.8581 3.6006 -0.0801 7.4361 -0.0000 -0.0000 0.0000 -65.8568 17.7091 51.3826 25.3824 -36.5923 -8.5168 -0.0000 -0.0000 24.5373 -32.7803 34.5547 -20.0649 -7.1250 0.0000 -0.0000 -65.6036 53.1826 -19.8265 -0.0000 -0.0000 0.0000 70.8163 -15.2092 34.8529 -17.0071 26.8671 -4.0905 0.0000 -0.0000 -19.0592 15.7047 4.6237 1.2985 7.1250 -0.0000 -0.0000 30.3306 -24.6683 17.3754
0.00 0.00 0.00 -0.5613 4.5135 4.8140 0.0000 0.0000 0.0000 -26.6437 -20.5620 -12.4978 2.7601 10.2961 29.9411 0.6286 5.5614 -18.0283 0.0042 0.4195 1.1526 0.0000 0.0000 0.0000 8.7020 23.3487 -29.8210 -6.0526 -14.4791 45.1923 1.5803 -21.6545 -6.3651 -1.2479 -7.0826 19.9603 -1.2283 0.4147 7.5213 -0.7005 0.3971 -1.3836 -0.0878 0.2242 -5.6681 -5.7191 -1.8481 -10.2502 10.8138 -3.5773 17.9207 4.1800 -1.1370 7.4709 0.0000 -0.0000 0.0000 -51.3590 9.8085 25.6679 12.6544 -20.7787 -2.3292 -0.0000 -0.0000 33.1068 -35.4669 35.7912 -22.6189 -7.1250 0.0000 -0.0000 -68.9019 53.3447 -22.1991 0.0000 -0.0000 0.0000 52.9102 -16.4095 27.0528 -6.0106 10.2799 -0.5412 0.0000 0.0000 13.5582 20.6970 3.2804 1.2385 7.1250 -0.0000 -0.0000 33.7140 -25.4191 19.4241
0.00 0.00 0.00 1.2588 -0.3735 8.3163 0.0000 0.0000 0.0000 -25.7697 -25.0115 -1.5672 0.9641 6.2518 17.5167 -0.2197 16.5865 -21.3091 0.0009 0.1934 0.5314 0.0000 0.0000 0.0000 8.3040 35.0984 -20.4361 -2.4828 -9.8065 28.3525 4.3188 -33.8691 -15.5087 -0.3830 -3.9744 11.0046 -1.6827 0.3584 2.1458 -1.0749 0.3544 -3.6675 -0.1915 0.2177 -4.9952 -6.2543 -1.7038 -7.9160 10.6300 -3.1386 15.2083 4.1968 -1.0921 6.1515 -0.0000 -0.0000 0.0000 -52.0117 10.1456 19.1062 17.2100 -27.1338 -4.1827 -0.0000 -0.0000 29.9807 -34.3374 36.2913 -22.0148 -7.1250 0.0000 -0.0000 -68.7175 53.8439 -23.0881 -0.0000 -0.0000 0.0000 47.0681 -14.4756 33.5399 -11.5328 19.1003 -1.9467 0.0000 -0.0000 -0.1860 8.5805 7.7176 1.1608 7.1250 -0.0000 -0.0000 25.0802 -22.2304 15.2104
0.00 0.00 0.00 0.6454 -2.1362 10.7555 0.0000 0.0000 0.0000 -22.0416 -28.0356 2.0634 0.8924 6.0211 16.8457 -0.4355 21.1199 -26.4803 0.0004 -0.1271 -0.3493 0.0000 0.0000 0.0000 14.9142 33.6589 -20.1293 -2.4758 -9.7938 28.3116 3.2769 -30.6067 -18.7819 -0.5768 -4.8633 13.5190 -0.7689 -1.1081 0.8584 0.1176 -1.5086 -4.3639 0.6297 -0.7182 -4.9609 -5.8424 -1.7711 -6.6608 12.4586 -2.4394 2.6587 4.6314 -0.9380 2.1150 -0.0000 -0.0000 0.0000 -80.2005 10.5202 53.6772 33.4336 -43.6607 -13.7205 -0.0000 -0.0000 23.4110 -31.2074 39.9047 -21.2375 -7.1250 0.0000 -0.0000 -70.9512 56.4025 -29.6272 -0.0000 -0.0000 0.0000 70.8360 -15.0494 56.3269 -35.1661 44.9304 -14.9305 0.0000 -0.0000 -3.5658 3.3283 14.6471 0.8425 7.1250 -0.0000 -0.0000 20.6509 -15.8570 15.2599
0.00 0.00 0.00 0.7075 -4.9515 10.6986 0.0000 0.0000 0.0000 -20.9960 -24.5914 2.6974 0.9493 6.2049 17.3801 0.0534 19.6083 -28.1339 0.0531 1.4877 4.0918 0.0000 0.0000 0.0000 17.8815 34.8870 -17.9309 -2.4155 -9.6826 27.9548 3.4130 -30.6916 -15.1107 -0.0479 -1.4118 3.8827 -0.8351 -1.2658 -0.1774 0.5046 -1.7021 -4.8573 1.0576 -0.8040 -4.8713 -5.4593 -2.2714 -5.3876 13.3038 -3.0476 0.8687 4.8116 -1.3113 1.4484 0.0000 0.0000 0.0000 -82.3162 8.7443 67.2657 62.1770 -56.8627 -36.1583 -0.0000 -0.0000 1.4162 -44.7180 27.7334 -24.7403 -7.1250 0.0000 -0.0000 -64.8410 46.8188 -5.1263 0.0000 0.0000 0.0000 73.6925 -14.4114 62.3343 -75.8019 59.2244 -47.7361 0.0000 -0.0000 -35.2351 9.3555 13.3870 2.1845 7.1250 -0.0000 -0.0000 24.6068 -17.0060 18.0974
0.00 0.00 0.00 0.0499 -5.5921 10.6836 0.0000 0.0000 0.0000 -18.8579 -21.0846 0.3030 1.2846 7.1821 20.2560 0.2617 17.0390 -26.3871 0.0130 -0.7368 -2.0249 0.0000 0.0000 0.0000 20.3723 34.4626 -16.3055 -2.2304 -9.3303 26.8342 3.2888 -30.1562 -14.0825 -0.0209 -0.9325 2.5631 -0.0106 -1.5017 -1.1923 0.7707 -1.9896 -5.1355 0.8577 -0.9780 -4.5974 -5.3982 -2.5473 -5.3980 13.9203 -3.6190 2.4548 4.9669 -1.5350 1.9815 0.0000 -0.0000 0.0000 -82.6921 8.8704 65.1567 82.1159 -59.7638 -53.1776 -0.0000 0.0000 -11.0386 -47.2680 27.2549 -26.3685 -7.1250 0.0000 -0.0000 -65.1867 46.0294 -3.0255 0.0000 -0.0000 0.0000 72.8748 -13.7170 61.1109 -98.1454 59.7478 -67.0482 0.0000 -0.0000 -44.7053 15.0523 12.1899 3.2500 7.1250 -0.0000 -0.0000 28.2520 -17.8837 20.9329
0.00 0.00 0.00 0.2068 -7.5652 9.7117 0.0000 0.0000 0.0000 -17.4850 -15.7878 -1.4997 1.6893 8.1864 23.2816 0.5519 12.5361 -23.6076 0.0479 -1.4120 -3.8833 0.0000 0.0000 0.0000 22.5821 33.8880 -14.2934 -2.2188 -9.3078 26.7629 2.9328 -28.6523 -12.8204 -0.0005 -0.1514 0.4161 0.0612 -1.4195 -1.8117 0.5732 -1.8895 -5.2232 0.5951 -0.9376 -4.3482 -5.6217 -2.8446 -4.5611 14.6160 -4.1994 3.6388 5.2043 -1.8040 2.2658 -0.0000 0.0000 0.0000 -81.0849 8.1393 61.8497 101.3109 -59.5110 -69.7795 -0.0000 0.0000 -18.0705 -47.8819 25.0592 -25.1012 -7.1250 0.0000 -0.0000 -62.7301 44.2536 2.1004 -0.0000 0.0000 0.0000 71.2260 -12.6409 58.2125 -116.5425 57.1630 -82.7676 0.0000 -0.0000 -59.3600 25.6694 9.8715 4.7103 7.1250 -0.0000 -0.0000 34.5703 -18.8762 26.9566
0.00 0.00 0.00 0.0443 -9.3216 8.4373 0.0000 0.0000 0.0000 -13.5049 -7.3516 -11.8753 4.4785 12.7713 38.5182 0.4852 3.2642 -14.7572 0.0776 1.7973 4.9458 0.0000 0.0000 0.0000 25.8929 31.9115 -12.5261 -2.3376 -9.5364 27.4881 1.8240 -24.0734 -16.7910 -0.1463 -2.4646 6.7914 -0.0201 -1.5275 -2.1080 0.7438 -2.0315 -5.4437 0.8147 -1.0022 -4.4013 -5.2791 -2.8084 -5.2610 14.9134 -4.5312 6.5165 5.2228 -1.8279 3.2640 0.0000 0.0000 0.0000 -79.2436 6.5154 61.8435 118.5838 -56.6757 -84.4780 -0.0000 0.0000 -21.9275 -49.6321 25.1452 -26.5577 -7.1250 0.0000 -0.0000 -63.1737 43.9507 3.0468 0.0000 0.0000 0.0000 69.9085 -12.4486 57.5592 -128.9316 53.4174 -92.9702 0.0000 -0.0000 -65.1928 29.6248 12.2645 6.8877 7.1250 -0.0000 -0.0000 35.8059 -15.9602 31.6491
0.00 0.00 0.00 -1.0356 -17.1184 6.1955 0.0000 0.0000 0.0000 -7.8101 -18.4844 -17.4863 3.9544 12.0994 36.0846 1.0449 4.3461 -21.3398 0.0435 -1.3454 -3.6996 0.0000 0.0000 0.0000 31.0774 28.6220 -9.3927 -2.2886 -9.4429 27.1908 0.5711 -15.8263 -15.1339 -0.0807 -1.8323 5.0426 -0.9572 -1.6117 -1.6051 1.0228 -2.1448 -4.1393 1.6143 -1.0299 -3.2804 -5.1840 -3.0948 -2.3635 19.2851 -6.8789 15.1827 6.6597 -2.5708 5.7522 -0.0000 -0.0000 0.0000 -81.9353 10.6332 55.2678 101.1063 -59.5287 -69.6031 -0.0000 -0.0000 17.4437 -44.4263 42.9630 -33.7435 -7.1250 0.0000 -0.0000 -84.1579 54.6747 -38.1681 -0.0000 -0.0000 0.0000 75.3203 -11.6352 62.5902 -110.3186 58.3811 -77.5008 0.0000 -0.0000 -24.5255 22.7875 3.1757 1.3332 7.1250 -0.0000 -0.0000 34.9376 -25.2687 20.6528
